<?xml version="1.0" standalone="no"?>
<!DOCTYPE svg PUBLIC "-//W3C//DTD SVG 20010904//EN"
 "http://www.w3.org/TR/2001/REC-SVG-20010904/DTD/svg10.dtd">
<svg version="1.0" xmlns="http://www.w3.org/2000/svg"
 width="2048.000000pt" height="1152.000000pt" viewBox="0 0 2048.000000 1152.000000"
 preserveAspectRatio="xMidYMid meet">

<g transform="translate(0.000000,1152.000000) scale(0.100000,-0.100000)"
fill="#000000" stroke="none">
<path d="M964 8601 c-25 -11 -44 -28 -49 -42 -4 -13 -9 -616 -10 -1339 -10
-4217 -13 -3918 48 -3962 32 -23 0 -22 567 -30 83 -2 135 11 168 42 l32 29 0
1181 c0 1030 -2 1190 -16 1256 -14 69 -14 78 1 100 44 68 81 43 171 -117 6
-10 18 -27 26 -36 9 -10 19 -28 22 -40 4 -11 13 -24 21 -27 8 -3 15 -10 15
-16 0 -9 29 -49 99 -136 4 -5 14 -21 21 -34 7 -13 17 -29 21 -34 5 -6 20 -25
34 -42 14 -18 25 -36 25 -41 0 -6 9 -18 20 -28 11 -10 20 -23 20 -30 0 -6 18
-30 40 -53 22 -22 40 -45 40 -50 0 -5 9 -17 20 -27 11 -10 20 -23 20 -30 0 -7
9 -20 20 -30 11 -10 20 -22 20 -28 0 -8 25 -43 63 -87 52 -61 97 -119 97 -126
0 -5 19 -30 43 -56 23 -26 48 -55 54 -65 44 -64 63 -95 63 -102 0 -11 44 -47
79 -65 24 -13 70 -16 249 -16 l218 0 43 28 c27 17 44 36 48 54 3 15 14 35 24
44 11 9 19 25 19 34 0 9 9 25 20 35 11 10 20 23 20 30 0 7 9 20 20 30 16 15
20 31 20 90 0 70 -1 72 -40 111 -22 21 -40 45 -40 52 0 7 -7 15 -15 18 -8 3
-17 16 -21 27 -7 24 -28 53 -86 119 -21 24 -38 48 -38 55 0 7 -9 17 -20 23
-11 6 -20 17 -20 25 0 8 -9 19 -20 25 -11 6 -20 17 -20 24 0 7 -9 21 -20 31
-11 10 -20 22 -20 27 0 5 -14 23 -31 40 -17 17 -38 43 -47 57 -9 14 -22 30
-29 34 -7 4 -13 13 -13 18 0 13 -87 121 -106 132 -8 4 -14 14 -14 21 0 7 -9
21 -20 31 -11 10 -20 22 -20 27 0 5 -27 43 -60 83 -33 40 -60 78 -60 83 0 5
-9 17 -20 27 -11 10 -20 23 -20 28 0 6 -7 17 -15 26 -51 54 -105 117 -105 122
0 6 -29 41 -65 80 -8 9 -15 21 -15 27 0 6 -6 15 -13 19 -11 7 -37 42 -62 82
-22 36 -108 141 -116 141 -5 0 -9 6 -9 13 0 8 -9 22 -20 32 -11 10 -20 23 -20
30 0 7 -9 20 -20 30 -11 10 -20 24 -20 31 0 7 -9 18 -20 24 -11 6 -20 15 -20
21 0 5 -18 29 -40 51 -22 23 -40 47 -40 53 0 7 -9 20 -20 30 -11 10 -20 22
-20 27 0 5 -14 23 -31 40 -17 17 -38 43 -47 57 -9 14 -22 30 -29 34 -7 4 -13
13 -13 19 0 10 -33 55 -65 89 -8 9 -15 20 -15 26 0 5 -9 18 -20 28 -11 10 -20
22 -20 27 0 6 -9 21 -20 35 -20 25 -20 41 -20 693 l0 667 -27 31 c-16 17 -41
36 -56 42 -17 6 -145 10 -330 10 -273 0 -306 -2 -343 -19z"/>
<path d="M4163 8601 c-34 -16 -44 -26 -52 -58 -6 -24 -7 -455 -3 -1178 3 -627
6 -1195 6 -1263 1 -128 -3 -141 -46 -142 -28 0 -148 132 -148 164 0 8 -9 20
-20 26 -11 6 -20 19 -20 30 0 11 -9 24 -20 30 -11 6 -20 20 -20 30 0 11 -9 25
-20 32 -11 7 -20 18 -20 25 0 7 -9 17 -20 23 -11 6 -20 14 -20 19 0 5 -18 28
-40 52 -22 24 -43 52 -46 62 -3 9 -10 17 -15 17 -5 0 -14 11 -19 25 -5 14 -17
28 -25 31 -8 4 -15 11 -15 16 0 6 -18 32 -40 58 -22 26 -40 52 -40 57 0 6 -9
18 -20 28 -11 10 -20 23 -20 30 0 7 -9 20 -20 30 -11 10 -20 22 -20 27 0 4
-18 25 -40 47 -22 21 -40 44 -40 49 0 6 -9 16 -20 22 -11 6 -20 15 -20 21 0 6
-36 55 -80 109 -44 54 -80 102 -80 106 0 23 -56 84 -93 100 -36 17 -67 19
-252 19 -187 0 -214 -2 -245 -19 -37 -20 -89 -73 -90 -92 0 -6 -9 -19 -20 -29
-11 -10 -20 -26 -20 -36 0 -10 -6 -22 -13 -26 -14 -9 -57 -92 -57 -111 0 -16
31 -84 49 -105 8 -9 19 -26 25 -36 29 -51 88 -130 120 -160 20 -19 36 -40 36
-46 0 -7 9 -20 20 -30 11 -10 20 -24 20 -31 0 -11 146 -205 185 -245 8 -9 15
-19 15 -24 0 -8 4 -13 54 -68 14 -15 26 -32 26 -36 0 -4 9 -16 20 -26 11 -10
20 -22 20 -28 0 -9 14 -28 83 -111 18 -21 36 -46 41 -55 5 -9 15 -20 23 -24 7
-4 13 -13 13 -20 0 -7 18 -32 40 -56 22 -24 40 -47 40 -51 0 -4 9 -15 20 -25
11 -10 20 -23 20 -30 0 -6 7 -20 15 -30 71 -94 119 -151 131 -158 8 -4 14 -14
14 -21 0 -7 9 -21 20 -31 11 -10 20 -25 20 -32 0 -8 27 -48 60 -88 33 -40 60
-77 60 -81 0 -4 7 -14 15 -23 27 -29 65 -79 65 -86 0 -3 26 -39 59 -78 32 -40
61 -82 65 -94 4 -11 13 -24 21 -27 8 -3 15 -11 15 -18 0 -7 15 -29 33 -48 34
-38 44 -52 104 -140 43 -63 39 -57 96 -130 24 -31 48 -75 55 -100 7 -29 13
-249 17 -620 4 -316 9 -593 13 -614 11 -61 46 -81 135 -79 40 1 187 3 327 5
278 3 284 4 319 62 l21 33 0 2609 c0 2396 -1 2611 -16 2633 -34 47 -61 51
-391 51 -281 0 -312 -2 -350 -19z"/>
<path d="M9629 8605 c-19 -10 -29 -27 -36 -57 -17 -70 -21 -1323 -11 -2723 8
-976 13 -1138 39 -1215 11 -30 19 -66 19 -80 0 -14 9 -42 20 -63 11 -20 20
-49 20 -64 0 -16 9 -43 20 -61 11 -18 20 -40 20 -50 0 -9 9 -30 20 -47 11 -16
20 -39 20 -51 0 -11 9 -29 20 -39 11 -10 20 -26 20 -36 0 -10 4 -20 9 -24 13
-7 71 -93 71 -104 0 -4 9 -16 20 -26 11 -10 20 -22 20 -28 0 -5 18 -31 40 -57
22 -26 40 -52 40 -57 0 -5 8 -16 18 -24 9 -9 42 -44 72 -78 103 -118 398 -319
567 -388 228 -92 275 -98 728 -98 343 0 383 2 412 17 36 20 83 61 83 73 0 4
18 29 40 55 22 26 40 51 40 55 0 4 9 18 20 32 16 20 20 41 20 97 0 81 -4 88
-102 191 -32 32 -58 63 -58 68 0 8 -73 105 -105 138 -8 9 -15 20 -15 26 0 6
-19 23 -42 39 l-42 29 -155 -3 c-384 -7 -562 35 -751 176 -79 59 -170 145
-170 160 0 5 -9 17 -20 27 -11 10 -20 26 -20 35 0 10 -9 29 -20 43 -11 14 -20
33 -20 44 0 10 -9 32 -20 48 -11 17 -20 43 -20 58 0 15 -9 45 -20 67 -20 39
-20 59 -20 1939 l0 1901 -29 32 -29 33 -344 2 c-284 2 -348 0 -369 -12z"/>
<path d="M15663 8605 c-17 -7 -34 -22 -37 -33 -7 -22 20 -118 35 -128 5 -3 16
-20 24 -37 8 -18 26 -50 39 -72 14 -22 32 -53 40 -70 9 -16 25 -43 36 -60 11
-16 27 -45 36 -64 8 -18 19 -38 25 -45 14 -17 53 -78 67 -106 7 -14 23 -43 37
-65 13 -22 28 -49 33 -60 6 -12 17 -27 26 -34 9 -7 16 -19 16 -26 0 -7 7 -18
16 -25 8 -8 22 -27 30 -44 30 -63 47 -91 61 -99 7 -4 13 -14 13 -21 0 -7 9
-21 20 -31 11 -10 20 -23 20 -30 0 -7 9 -20 20 -30 11 -10 20 -26 20 -35 0
-10 7 -23 14 -30 8 -6 20 -27 26 -46 6 -19 15 -34 20 -34 4 0 13 -13 20 -29 6
-16 18 -32 26 -35 8 -3 14 -14 14 -24 0 -10 9 -27 20 -37 11 -10 20 -26 20
-35 0 -9 9 -25 20 -35 11 -10 20 -25 20 -35 0 -9 7 -25 15 -35 30 -39 63 -93
69 -113 4 -11 13 -23 21 -26 8 -3 15 -14 15 -24 0 -11 9 -31 20 -45 11 -14 20
-30 20 -35 0 -6 18 -33 40 -61 22 -28 40 -54 40 -59 0 -5 7 -15 16 -22 8 -8
22 -27 30 -44 31 -64 48 -92 80 -133 19 -23 34 -46 34 -51 0 -5 9 -17 20 -27
11 -10 20 -23 20 -30 0 -7 9 -22 20 -35 11 -13 20 -28 21 -34 0 -6 16 -31 35
-56 18 -25 38 -54 43 -65 5 -12 16 -27 25 -34 9 -7 16 -21 16 -31 0 -9 9 -29
20 -43 11 -14 20 -30 20 -35 0 -5 7 -15 14 -22 22 -17 56 -92 56 -121 0 -13
-7 -33 -15 -43 -8 -11 -15 -27 -15 -36 0 -9 -9 -25 -20 -35 -11 -10 -20 -23
-20 -30 0 -7 -9 -20 -20 -30 -11 -10 -20 -22 -20 -26 0 -11 -58 -97 -71 -104
-5 -4 -9 -14 -9 -24 0 -10 -9 -26 -20 -36 -11 -10 -20 -23 -20 -30 0 -7 -9
-20 -20 -30 -11 -10 -20 -23 -20 -28 0 -6 -7 -19 -17 -29 -19 -21 -36 -49 -58
-95 -8 -18 -19 -33 -24 -33 -5 0 -14 -13 -20 -30 -5 -16 -14 -30 -20 -30 -5 0
-13 -10 -17 -22 -3 -13 -13 -31 -22 -41 -16 -18 -32 -44 -54 -87 -7 -14 -27
-45 -43 -69 -17 -24 -35 -52 -41 -62 -6 -11 -18 -27 -26 -36 -8 -10 -18 -25
-22 -33 -4 -8 -18 -33 -31 -55 -14 -22 -31 -54 -39 -71 -8 -17 -22 -36 -30
-44 -9 -7 -16 -20 -16 -29 0 -9 -9 -24 -20 -34 -11 -9 -20 -23 -20 -30 0 -8
-9 -22 -20 -32 -11 -10 -20 -25 -20 -34 0 -9 -9 -24 -20 -34 -11 -9 -20 -25
-20 -35 0 -10 -9 -25 -20 -35 -11 -9 -20 -23 -20 -32 0 -8 -9 -19 -20 -25 -11
-6 -20 -19 -20 -29 0 -10 -9 -26 -20 -36 -11 -10 -20 -26 -20 -35 0 -9 -9 -25
-20 -35 -11 -10 -20 -23 -20 -30 0 -7 -9 -20 -20 -30 -11 -10 -20 -23 -20 -30
0 -7 -9 -20 -20 -30 -11 -10 -20 -25 -20 -34 0 -9 -9 -24 -20 -34 -11 -9 -20
-25 -20 -35 0 -11 -9 -27 -20 -37 -11 -10 -20 -23 -20 -30 0 -7 -9 -20 -20
-30 -11 -10 -20 -23 -20 -30 0 -7 -9 -20 -20 -30 -11 -10 -20 -23 -20 -30 0
-7 -9 -20 -20 -30 -11 -10 -20 -23 -20 -30 0 -7 -9 -20 -20 -30 -11 -10 -20
-23 -20 -30 0 -7 -9 -20 -20 -30 -11 -10 -20 -26 -20 -35 0 -9 -9 -25 -20 -35
-11 -10 -20 -26 -20 -36 0 -10 -9 -23 -20 -29 -11 -6 -20 -18 -20 -27 0 -9 -7
-25 -17 -35 -37 -41 -93 -158 -93 -195 0 -43 36 -111 68 -126 46 -24 88 -26
407 -18 272 6 314 9 345 25 36 19 89 73 90 92 0 6 9 19 20 29 11 10 20 24 20
31 0 7 6 17 13 21 11 7 28 33 75 108 7 11 18 31 24 45 7 14 28 45 48 70 40 51
55 74 72 110 7 14 20 36 30 49 10 13 18 32 18 43 0 10 6 21 14 24 8 3 19 19
25 35 5 16 14 29 20 29 5 0 13 10 17 23 3 12 13 30 22 40 18 20 35 49 56 93 8
17 22 36 30 44 9 7 16 18 16 25 0 6 9 20 20 30 11 10 20 23 20 30 0 7 9 22 20
35 11 13 20 31 20 40 0 9 9 25 20 35 11 10 20 26 20 35 0 9 9 25 20 35 11 10
20 22 20 28 0 5 18 31 40 57 22 26 40 54 40 62 0 8 9 25 20 38 11 13 20 31 20
40 0 9 9 25 20 35 11 10 20 27 20 37 0 10 7 21 15 24 8 3 17 14 20 24 3 10 14
28 25 40 11 13 20 31 20 40 0 9 9 25 20 35 11 10 20 23 20 30 0 7 9 20 20 30
11 10 20 24 20 32 0 7 6 16 14 19 8 3 19 18 26 34 7 16 18 31 26 34 8 3 14 13
14 22 0 9 9 27 20 41 11 14 20 35 20 45 0 11 9 31 20 45 11 14 20 36 20 48 0
12 10 31 23 42 55 51 121 36 137 -31 6 -22 17 -54 25 -69 8 -16 15 -34 15 -42
0 -7 7 -18 16 -25 8 -8 22 -27 30 -44 15 -33 28 -54 82 -130 17 -26 32 -51 32
-55 0 -4 9 -16 20 -26 11 -10 20 -26 20 -35 0 -10 9 -29 20 -43 11 -14 20 -29
20 -35 0 -5 9 -17 20 -27 11 -10 20 -24 20 -31 0 -7 9 -18 20 -24 11 -6 20
-19 20 -29 0 -10 9 -26 20 -36 11 -10 20 -25 20 -32 0 -8 9 -26 20 -40 11 -14
20 -31 20 -38 0 -6 9 -20 20 -30 11 -10 20 -23 20 -30 0 -7 9 -20 20 -30 11
-10 20 -26 20 -35 0 -10 7 -23 15 -30 8 -6 17 -21 21 -32 7 -23 47 -86 69
-109 8 -9 15 -21 15 -27 0 -6 6 -17 14 -25 8 -8 22 -29 30 -48 9 -19 21 -43
28 -54 46 -74 65 -102 76 -113 6 -7 12 -17 12 -21 0 -4 9 -18 20 -31 11 -13
20 -28 20 -35 0 -7 9 -20 20 -30 11 -10 20 -26 20 -35 0 -9 9 -25 20 -35 11
-10 20 -22 20 -28 0 -5 18 -31 40 -57 22 -26 40 -54 40 -62 0 -8 9 -23 20 -33
11 -10 20 -26 20 -35 0 -9 9 -25 20 -35 11 -10 20 -23 20 -29 0 -9 41 -75 65
-103 6 -6 23 -30 39 -52 18 -25 50 -51 80 -66 l50 -25 332 0 c230 0 341 4 358
12 18 7 32 29 47 67 19 52 19 58 5 89 -9 18 -16 41 -16 51 0 10 -9 30 -20 44
-11 14 -20 32 -20 40 0 7 -9 22 -20 32 -11 10 -20 23 -20 30 0 7 -9 20 -20 30
-11 10 -20 24 -20 32 0 7 -9 21 -20 30 -11 10 -20 25 -20 34 0 9 -9 24 -20 34
-11 10 -20 23 -20 30 0 7 -9 20 -19 29 -11 10 -22 28 -25 42 -4 13 -10 24 -15
24 -5 0 -15 16 -21 35 -6 19 -16 35 -21 35 -5 0 -16 15 -24 33 -8 17 -26 50
-40 72 -13 22 -28 49 -33 60 -6 12 -17 27 -26 34 -9 7 -16 20 -16 27 0 8 -9
22 -20 31 -11 10 -20 25 -20 34 0 9 -9 24 -20 34 -11 10 -20 26 -20 35 0 9 -9
25 -20 35 -11 10 -20 23 -20 30 0 7 -9 20 -20 30 -11 10 -20 26 -20 35 0 9 -9
25 -20 35 -11 10 -20 24 -20 32 0 7 -9 21 -20 30 -11 10 -20 25 -20 34 0 9 -9
24 -20 34 -11 10 -20 26 -20 35 0 9 -9 25 -20 35 -11 10 -20 23 -20 30 0 7 -9
20 -20 30 -11 10 -20 23 -20 30 0 7 -9 20 -20 30 -11 10 -20 26 -20 35 0 9 -9
25 -20 35 -11 10 -20 24 -20 32 0 7 -6 16 -14 19 -8 3 -19 18 -26 34 -7 16
-18 31 -26 34 -8 3 -14 14 -14 24 0 10 -9 27 -20 37 -11 10 -20 26 -20 36 0
10 -8 26 -18 36 -10 10 -23 30 -30 46 -6 15 -16 27 -22 27 -5 0 -10 6 -10 13
0 8 -9 22 -20 32 -11 10 -20 23 -20 30 0 7 -9 20 -20 30 -11 10 -20 28 -20 40
0 12 -9 30 -20 40 -11 10 -20 22 -20 28 0 9 -34 55 -65 88 -8 9 -15 20 -15 26
0 5 -9 18 -20 28 -11 10 -20 26 -20 37 0 10 -9 26 -20 35 -11 10 -20 25 -20
34 0 9 -9 24 -20 34 -11 10 -20 23 -20 30 0 6 -7 20 -15 30 -29 38 -65 96 -65
105 0 5 -6 15 -13 22 -19 19 -57 101 -57 124 0 20 24 63 78 139 17 25 32 52
32 59 0 7 9 21 20 31 11 10 20 23 20 30 0 7 9 20 20 30 11 10 20 23 20 30 0 7
9 20 20 30 11 10 20 26 20 35 0 9 9 25 20 35 11 10 20 26 20 35 0 9 9 25 20
35 11 10 20 23 20 30 0 7 9 20 20 30 11 10 20 23 20 30 0 7 9 20 20 30 11 10
20 26 20 35 0 9 9 25 20 35 11 10 20 26 20 35 0 9 9 25 20 35 11 10 20 23 20
30 0 7 9 20 20 30 11 10 20 23 20 30 0 7 9 20 20 30 11 10 20 26 20 35 0 9 9
25 20 35 11 10 20 26 20 35 0 9 9 25 20 35 11 10 20 23 20 28 0 6 7 19 17 29
18 20 32 43 63 103 31 60 45 83 63 103 10 10 17 23 17 29 0 5 9 18 20 28 11
10 20 23 20 30 0 7 9 20 20 30 11 10 20 26 20 35 0 9 9 25 20 35 11 10 20 26
20 36 0 10 9 23 20 29 11 6 20 16 20 22 0 6 7 20 17 30 18 20 36 50 54 88 6
14 15 32 20 40 5 8 17 31 25 50 9 19 22 39 30 43 8 4 14 14 14 21 0 7 9 21 20
31 11 10 20 23 20 30 0 7 9 20 20 30 11 10 20 26 20 35 0 10 7 23 15 30 8 6
17 22 21 33 4 12 23 42 44 67 21 25 40 55 44 68 4 12 11 22 16 22 5 0 14 15
20 34 6 19 18 40 26 46 7 7 14 20 14 30 0 9 9 25 20 35 11 10 20 23 20 30 0 7
9 20 20 30 11 10 20 23 20 30 0 7 9 22 20 35 11 13 20 28 20 35 0 7 9 22 20
35 31 35 26 74 -12 102 -33 23 -35 23 -387 26 -297 2 -361 0 -400 -13 -49 -16
-101 -57 -101 -79 0 -7 -9 -21 -19 -30 -11 -10 -22 -28 -25 -42 -4 -13 -10
-24 -15 -24 -5 0 -14 -13 -21 -30 -7 -16 -16 -30 -20 -30 -4 0 -13 -13 -20
-29 -6 -16 -18 -32 -26 -35 -8 -3 -14 -14 -14 -24 0 -10 -9 -27 -20 -37 -11
-10 -20 -26 -20 -35 0 -9 -9 -25 -20 -35 -11 -10 -20 -23 -20 -30 0 -7 -9 -20
-20 -30 -11 -10 -20 -23 -20 -30 0 -7 -9 -20 -20 -30 -11 -10 -20 -23 -20 -30
0 -7 -9 -22 -20 -35 -11 -13 -20 -31 -20 -40 0 -9 -9 -25 -20 -35 -11 -10 -20
-23 -20 -30 0 -7 -9 -20 -20 -30 -11 -10 -20 -23 -20 -29 0 -7 -9 -19 -20 -29
-11 -9 -20 -23 -20 -30 0 -8 -9 -22 -20 -32 -11 -10 -20 -22 -20 -26 0 -10
-45 -79 -65 -100 -8 -9 -15 -22 -15 -30 0 -8 -9 -22 -20 -32 -11 -9 -20 -23
-20 -30 0 -8 -9 -22 -20 -32 -11 -10 -20 -23 -21 -29 0 -6 -16 -31 -35 -56
-18 -25 -38 -55 -44 -68 -6 -13 -17 -30 -25 -38 -8 -9 -15 -21 -15 -28 0 -7
-9 -21 -20 -31 -11 -10 -20 -25 -20 -34 0 -9 -9 -24 -20 -34 -11 -9 -20 -23
-20 -30 0 -8 -9 -22 -20 -32 -11 -10 -20 -23 -20 -30 0 -7 -9 -20 -20 -30 -11
-10 -20 -23 -20 -30 0 -7 -9 -20 -20 -30 -11 -10 -20 -23 -20 -30 0 -6 -7 -20
-15 -30 -29 -38 -65 -96 -65 -105 0 -19 -54 -116 -74 -132 -26 -22 -65 -23
-94 -2 -24 16 -72 103 -72 129 0 8 -9 23 -20 32 -11 10 -20 25 -20 35 0 10 -9
26 -20 35 -11 10 -20 25 -20 35 0 9 -9 22 -20 28 -11 6 -20 17 -20 24 0 7 -9
21 -20 31 -11 10 -20 23 -20 30 0 7 -9 20 -20 30 -11 10 -20 26 -20 37 0 10
-9 26 -20 35 -11 10 -20 25 -20 34 0 9 -7 23 -16 30 -9 7 -20 22 -25 34 -5 11
-25 40 -43 65 -19 25 -35 52 -35 61 -1 9 -10 24 -21 34 -11 10 -20 24 -20 32
0 7 -9 21 -20 30 -11 10 -20 25 -20 34 0 9 -9 24 -20 34 -11 10 -20 24 -20 32
0 7 -9 21 -20 30 -11 10 -20 25 -20 34 0 9 -9 24 -20 34 -11 10 -20 23 -20 30
0 7 -9 20 -20 30 -11 10 -20 25 -20 34 0 9 -9 24 -20 34 -11 9 -20 23 -20 30
0 8 -9 22 -20 32 -11 10 -20 23 -20 30 0 7 -9 22 -20 35 -11 13 -20 28 -20 35
0 7 -9 20 -20 30 -11 10 -20 23 -20 30 0 7 -9 20 -20 30 -11 10 -20 23 -20 30
0 7 -9 20 -20 30 -11 10 -20 26 -20 35 0 9 -9 25 -20 35 -11 10 -20 23 -20 30
0 7 -9 20 -20 30 -11 10 -20 23 -20 30 0 7 -9 20 -20 30 -11 10 -20 23 -20 30
0 7 -9 22 -20 35 -11 13 -20 29 -20 35 0 7 -7 18 -16 25 -8 8 -22 27 -30 44
-27 60 -51 91 -84 114 -33 22 -35 22 -404 22 -292 -1 -378 -4 -403 -15z"/>
<path d="M7010 7209 c-123 -14 -324 -57 -435 -94 -195 -65 -465 -210 -618
-332 -104 -83 -317 -300 -317 -323 0 -5 -9 -14 -20 -20 -11 -6 -20 -17 -20
-24 0 -7 -9 -21 -20 -31 -11 -10 -20 -23 -20 -30 0 -7 -9 -20 -20 -30 -11 -10
-20 -23 -20 -30 0 -7 -9 -20 -20 -30 -11 -10 -20 -25 -20 -34 0 -9 -9 -24 -20
-34 -11 -9 -20 -24 -20 -33 0 -9 -9 -27 -20 -41 -11 -14 -20 -35 -20 -45 0
-11 -9 -31 -20 -45 -11 -14 -20 -35 -20 -45 0 -11 -9 -31 -20 -45 -11 -14 -20
-36 -20 -49 0 -13 -9 -41 -20 -61 -11 -21 -20 -52 -20 -69 0 -18 -9 -51 -20
-75 -11 -24 -20 -66 -20 -92 0 -26 -7 -80 -16 -119 -13 -57 -15 -111 -11 -287
5 -220 21 -348 51 -406 9 -17 16 -53 16 -80 0 -31 8 -65 20 -88 11 -20 20 -44
20 -53 0 -9 9 -27 20 -41 11 -14 20 -35 20 -47 0 -11 9 -34 20 -51 11 -16 20
-39 20 -51 0 -11 9 -29 20 -39 11 -10 20 -23 20 -30 0 -7 9 -20 20 -30 11 -10
20 -23 20 -30 0 -7 9 -22 20 -35 11 -13 20 -29 20 -35 0 -7 7 -18 16 -25 8 -8
21 -27 28 -44 7 -17 27 -46 45 -65 17 -18 31 -37 31 -42 0 -4 9 -13 20 -19 11
-6 20 -16 20 -22 0 -14 2 -16 137 -150 59 -58 133 -126 163 -149 30 -24 57
-46 60 -49 11 -13 152 -103 221 -140 339 -186 625 -258 979 -247 280 9 373 27
639 126 124 46 300 137 416 214 33 22 62 43 65 46 3 4 19 15 35 25 80 51 365
326 365 353 0 3 7 13 15 22 50 53 145 183 145 199 0 10 9 27 20 37 11 10 20
26 20 35 0 9 9 27 20 40 11 13 20 31 20 40 0 9 9 25 20 35 11 10 20 28 20 40
0 12 9 30 20 40 13 12 20 31 20 54 0 20 9 50 20 66 12 18 20 47 20 72 0 26 6
48 17 59 9 9 20 37 24 63 3 25 14 73 23 106 13 48 16 110 16 321 0 234 -2 269
-20 326 -11 34 -20 77 -20 94 0 17 -9 43 -20 57 -11 14 -20 40 -20 59 0 18 -9
47 -20 63 -11 17 -20 46 -20 66 0 21 -8 47 -20 62 -11 14 -20 36 -20 50 0 13
-9 36 -20 50 -11 14 -20 32 -20 40 0 7 -9 22 -20 32 -11 10 -20 24 -20 30 0 7
-9 24 -20 38 -11 14 -20 34 -20 45 0 10 -9 27 -20 37 -11 10 -20 24 -20 31 0
7 -9 18 -20 24 -11 6 -20 16 -20 21 0 6 -18 33 -40 59 -22 26 -40 51 -40 55 0
4 -10 18 -22 29 -13 12 -48 51 -78 86 -84 96 -112 123 -197 187 -306 231 -574
356 -906 424 -141 29 -411 43 -547 28z m425 -830 c160 -38 299 -100 440 -194
77 -52 205 -164 205 -180 0 -5 7 -15 15 -24 8 -9 28 -32 45 -51 17 -19 37 -42
44 -50 7 -8 16 -25 20 -37 4 -11 13 -24 21 -27 8 -3 15 -14 15 -24 0 -11 9
-31 20 -45 11 -14 20 -36 20 -49 0 -12 9 -34 20 -48 11 -14 20 -35 20 -48 0
-12 9 -40 20 -62 11 -22 20 -56 20 -76 0 -21 7 -76 16 -123 11 -58 14 -109 10
-156 -14 -152 -29 -242 -47 -283 -10 -23 -19 -53 -19 -65 0 -12 -9 -35 -20
-52 -11 -16 -20 -39 -20 -51 0 -11 -9 -29 -20 -39 -11 -10 -20 -26 -20 -35 0
-10 -7 -24 -16 -31 -9 -7 -20 -22 -26 -34 -36 -76 -51 -95 -138 -180 -141
-136 -209 -185 -369 -267 -134 -68 -178 -80 -374 -101 -118 -13 -250 -5 -387
21 -173 34 -397 159 -530 297 -41 42 -85 87 -97 100 -13 12 -23 27 -23 32 0 5
-9 18 -20 28 -11 10 -20 23 -20 30 0 7 -9 20 -20 30 -11 10 -20 23 -20 30 0 7
-9 20 -20 30 -11 10 -20 26 -20 35 0 9 -9 27 -20 40 -11 13 -20 35 -20 50 0
15 -9 37 -20 50 -12 14 -20 38 -20 59 0 20 -9 56 -20 80 -18 39 -20 65 -20
275 0 209 2 235 20 275 11 24 20 60 20 81 0 24 7 43 20 55 11 10 20 27 20 37
0 11 9 31 20 45 11 14 20 33 20 43 0 9 9 25 20 35 11 10 20 23 20 30 0 7 9 20
20 30 11 10 20 26 20 36 0 10 9 23 20 29 11 6 20 15 20 21 0 6 47 56 104 112
187 184 415 293 681 328 81 10 309 3 370 -12z"/>
<path d="M13685 7210 c-16 -4 -50 -8 -74 -9 -24 0 -60 -5 -80 -10 -20 -6 -65
-17 -101 -26 -306 -74 -519 -175 -768 -363 -114 -86 -302 -260 -302 -280 0 -4
-9 -13 -20 -20 -11 -7 -20 -17 -20 -24 0 -6 -7 -18 -15 -27 -31 -32 -104 -133
-110 -152 -4 -10 -10 -19 -15 -19 -5 0 -14 -15 -20 -34 -6 -19 -18 -40 -26
-46 -7 -7 -14 -19 -14 -27 0 -8 -9 -26 -20 -40 -11 -14 -20 -33 -20 -43 0 -9
-9 -25 -20 -35 -11 -10 -20 -28 -20 -39 0 -12 -9 -34 -20 -51 -11 -16 -20 -41
-20 -55 0 -14 -9 -38 -20 -55 -11 -16 -20 -41 -20 -55 0 -14 -9 -38 -20 -55
-12 -18 -20 -47 -20 -71 0 -22 -7 -63 -17 -90 -13 -39 -17 -103 -20 -315 -4
-231 -2 -276 13 -330 9 -35 20 -94 24 -130 4 -36 14 -77 23 -90 10 -13 17 -37
17 -54 0 -17 9 -47 20 -68 11 -20 20 -45 20 -54 0 -10 9 -31 20 -48 11 -16 20
-37 20 -46 0 -9 9 -28 20 -42 11 -14 20 -34 20 -45 0 -12 5 -24 11 -28 6 -3
19 -25 30 -48 26 -55 42 -82 62 -104 10 -10 17 -22 17 -27 0 -12 52 -88 67
-98 7 -4 13 -13 13 -18 0 -17 109 -144 240 -279 134 -138 401 -313 595 -390
146 -58 355 -118 490 -141 102 -18 453 -18 550 0 226 41 341 79 569 192 144
70 256 137 321 191 6 5 50 40 100 79 113 89 335 314 335 340 0 5 9 13 20 19
11 6 20 16 20 23 0 7 9 20 20 30 11 9 20 23 20 30 0 8 9 22 20 32 11 10 20 26
20 35 0 9 9 25 20 35 11 10 20 27 20 37 0 11 9 31 20 45 11 14 20 33 20 43 0
9 9 25 20 35 11 10 20 26 20 35 0 9 9 27 20 40 11 13 20 37 20 55 0 18 9 42
20 55 11 13 20 37 20 57 0 18 9 50 20 70 11 21 20 57 20 82 0 25 8 57 19 75
13 22 21 63 27 146 15 218 2 504 -27 562 -11 21 -19 57 -19 80 0 25 -8 56 -20
76 -11 18 -20 50 -20 71 0 23 -8 48 -20 64 -11 14 -20 38 -20 55 0 16 -9 41
-20 55 -11 14 -20 36 -20 50 0 13 -9 32 -20 42 -11 10 -20 26 -20 35 0 10 -9
29 -20 43 -11 14 -20 34 -20 45 0 10 -9 27 -20 37 -11 10 -20 24 -20 31 0 7
-6 17 -13 21 -7 4 -21 21 -32 37 -11 16 -27 39 -35 51 -44 65 -60 84 -110 139
-247 267 -355 352 -621 489 -231 119 -349 158 -629 209 -69 13 -435 19 -475 8z
m326 -815 c311 -44 548 -167 775 -405 44 -46 94 -115 94 -129 0 -4 9 -16 20
-26 11 -10 20 -23 20 -30 0 -7 9 -22 20 -35 11 -13 20 -31 20 -40 0 -10 9 -29
20 -43 11 -14 20 -36 20 -49 0 -13 9 -40 20 -61 11 -21 20 -56 20 -82 0 -24 8
-66 18 -92 23 -65 23 -255 -1 -332 -9 -30 -17 -74 -17 -98 0 -24 -9 -60 -20
-80 -11 -21 -20 -48 -20 -61 0 -13 -9 -35 -20 -49 -11 -14 -20 -36 -20 -48 0
-12 -9 -30 -20 -40 -11 -10 -20 -26 -20 -35 0 -9 -9 -25 -20 -35 -11 -10 -20
-26 -20 -35 0 -9 -9 -25 -20 -35 -11 -10 -20 -23 -20 -28 0 -6 -7 -17 -15 -26
-209 -222 -322 -304 -535 -387 -100 -39 -137 -48 -290 -65 -105 -12 -307 -5
-385 13 -69 15 -188 55 -249 83 -117 53 -285 183 -355 272 -18 23 -38 43 -42
43 -5 0 -9 6 -9 13 0 8 -9 22 -20 32 -11 10 -20 23 -20 30 0 6 -7 20 -15 30
-28 37 -65 96 -65 104 0 4 -9 16 -20 26 -11 10 -20 28 -20 39 0 12 -9 35 -20
51 -11 17 -20 42 -20 57 0 15 -10 47 -22 70 -22 41 -22 54 -23 303 0 252 1
261 23 296 12 20 22 52 22 70 0 19 9 45 20 59 11 14 20 37 20 51 0 15 7 32 15
39 8 6 17 22 21 33 4 12 24 43 45 68 22 26 39 53 39 61 0 8 9 23 20 33 11 10
20 25 20 33 0 9 7 22 15 31 47 52 98 102 151 149 75 67 82 72 90 72 4 0 15 6
23 14 36 31 141 79 254 117 199 68 328 81 518 54z"/>
</g>
</svg>
