<?xml version="1.0" standalone="no"?>
<!DOCTYPE svg PUBLIC "-//W3C//DTD SVG 20010904//EN"
 "http://www.w3.org/TR/2001/REC-SVG-20010904/DTD/svg10.dtd">
<svg version="1.0" xmlns="http://www.w3.org/2000/svg"
 width="345.000000pt" height="345.000000pt" viewBox="0 0 345.000000 345.000000"
 preserveAspectRatio="xMidYMid meet">

<g transform="translate(0.000000,345.000000) scale(0.100000,-0.100000)"
fill="#000000" stroke="none">
<path d="M629 3284 c-52 -59 -97 -113 -101 -119 -4 -6 -8 -655 -9 -1442 l-2
-1431 53 -64 c86 -104 159 -178 174 -178 16 0 89 80 81 89 -3 3 27 38 67 79
46 47 68 76 60 79 -10 4 -10 8 0 21 11 12 11 16 0 20 -10 3 -10 7 0 20 11 12
11 16 0 20 -10 3 -10 7 0 20 11 12 11 16 0 20 -10 3 -10 7 0 20 11 12 11 16 0
20 -10 3 -10 7 0 20 11 12 11 16 0 20 -10 3 -10 7 0 20 11 12 11 16 0 20 -10
3 -10 7 0 20 11 12 11 16 0 20 -10 3 -10 7 0 20 11 12 11 16 0 20 -10 3 -10 7
0 20 11 12 11 16 0 20 -10 3 -10 7 0 20 11 12 11 16 0 20 -10 3 -10 7 0 20 11
12 11 16 0 20 -10 3 -10 7 0 20 11 12 11 16 0 20 -10 3 -10 7 0 20 11 12 11
16 0 20 -10 3 -10 7 0 20 11 12 11 16 0 20 -10 3 -10 7 0 20 11 12 11 16 0 20
-10 3 -10 7 0 20 11 12 11 16 0 20 -10 3 -10 7 0 20 11 12 11 16 0 20 -10 3
-10 7 0 20 11 12 11 16 0 20 -10 3 -10 7 0 20 11 12 11 16 0 20 -10 3 -10 7 0
20 11 12 11 16 0 20 -10 3 -10 7 0 20 11 12 11 16 0 20 -10 3 -10 7 0 20 11
12 11 16 0 20 -10 3 -10 7 0 20 11 12 11 16 0 20 -10 3 -10 7 0 20 11 12 11
16 0 20 -10 3 -10 7 0 20 11 12 11 16 0 20 -10 3 -10 7 0 20 11 12 11 16 0 20
-10 3 -10 7 0 20 11 12 11 16 0 20 -10 3 -10 7 0 20 10 12 10 16 1 19 -10 4
-9 8 1 19 8 8 19 14 23 14 5 0 88 -80 185 -177 252 -255 486 -483 495 -483 17
0 328 322 315 327 -6 3 -10 9 -6 14 6 11 -195 208 -214 209 -7 0 -10 5 -7 10
3 6 -1 10 -10 10 -9 0 -13 5 -10 10 3 6 1 10 -4 10 -6 0 -81 70 -166 155 -86
85 -163 155 -171 155 -8 0 -12 5 -9 10 3 6 -1 10 -10 10 -9 0 -13 5 -10 10 3
5 -2 10 -11 10 -10 0 -14 3 -10 7 9 9 -74 93 -92 93 -7 0 -10 5 -7 10 3 6 -1
10 -9 10 -9 0 -15 5 -13 12 1 6 -8 17 -20 23 -13 7 -20 15 -16 18 3 4 -1 7
-11 7 -9 0 -14 5 -11 10 3 6 -1 10 -10 10 -9 0 -13 5 -10 10 3 6 -1 10 -10 10
-9 0 -13 5 -10 10 3 6 -1 10 -10 10 -9 0 -13 5 -10 10 3 6 -1 10 -10 10 -9 0
-13 5 -10 10 3 6 -1 10 -10 10 -9 0 -13 4 -10 10 3 5 1 10 -5 10 -17 0 -97 85
-92 98 2 7 -2 12 -8 12 -9 0 -9 5 1 17 11 13 11 17 1 21 -10 3 -10 7 0 20 11
12 11 16 0 20 -10 3 -10 7 0 20 11 12 11 16 0 20 -10 3 -10 7 0 20 11 12 11
16 0 20 -10 3 -10 7 0 20 11 12 11 16 0 20 -10 3 -10 7 0 20 11 12 11 16 0 20
-10 3 -10 7 0 20 11 12 11 16 0 20 -10 3 -10 7 0 20 11 12 11 16 0 20 -10 3
-10 7 0 20 11 12 11 16 0 20 -10 3 -10 7 0 20 11 12 11 16 0 20 -10 3 -10 7 0
20 11 12 11 16 0 20 -10 3 -10 7 0 20 11 12 11 16 0 20 -10 3 -10 7 0 20 11
12 11 16 0 20 -10 3 -10 7 0 20 11 12 11 16 0 20 -10 3 -10 7 0 20 11 12 11
16 0 20 -10 3 -10 7 0 20 11 12 11 16 0 20 -10 3 -10 7 0 20 11 12 11 16 0 20
-10 3 -10 7 0 20 11 12 11 16 0 20 -10 3 -10 7 0 20 11 12 11 16 0 20 -10 3
-10 7 0 20 11 12 11 16 0 20 -10 3 -10 7 0 20 11 12 11 16 0 20 -10 3 -10 7 0
20 11 12 11 16 0 20 -10 3 -10 7 0 20 11 12 11 16 0 20 -10 3 -10 7 0 20 11
12 11 16 0 20 -10 3 -10 7 0 20 10 12 10 16 0 19 -6 3 -9 9 -6 14 3 6 -3 18
-15 28 -11 10 -18 21 -14 25 3 3 -1 6 -11 6 -9 0 -14 5 -11 10 3 6 -1 10 -10
10 -9 0 -14 4 -11 9 3 5 -16 32 -43 59 -27 28 -47 53 -43 56 3 3 -2 6 -11 6
-9 0 -16 6 -14 12 1 7 -7 14 -19 16 -16 2 -43 -23 -115 -104z"/>
<path d="M2693 3348 c-17 -18 -63 -71 -101 -117 l-71 -84 -3 -732 c-2 -404 -6
-736 -9 -739 -3 -4 -18 0 -32 7 -15 8 -24 17 -20 20 3 4 -1 7 -11 7 -9 0 -14
5 -11 10 3 6 -1 10 -10 10 -9 0 -13 4 -10 10 6 10 -248 263 -271 268 -8 2 -12
8 -9 13 4 5 -1 9 -10 9 -9 0 -13 5 -10 10 3 6 -1 10 -10 10 -9 0 -13 5 -10 10
3 6 -1 10 -10 10 -9 0 -13 5 -10 10 3 6 -1 10 -10 10 -9 0 -13 5 -10 10 3 6
-1 10 -10 10 -9 0 -13 5 -10 10 3 6 1 10 -5 10 -15 0 -60 46 -53 54 4 3 1 6
-6 6 -6 0 -74 63 -151 140 -77 77 -143 140 -148 140 -4 0 -81 -74 -171 -164
-118 -119 -161 -168 -154 -178 4 -8 113 -115 242 -238 128 -124 313 -304 410
-400 97 -96 254 -250 349 -341 l172 -167 0 -350 0 -350 43 -54 c74 -96 155
-178 176 -178 21 0 94 78 85 91 -3 5 3 9 12 9 10 0 14 3 11 6 -3 4 18 34 49
67 30 34 53 66 50 73 -2 6 1 17 7 24 9 10 9 14 -1 17 -10 4 -10 8 0 21 11 12
11 16 0 20 -10 3 -10 7 0 20 11 12 11 16 0 20 -10 3 -10 7 0 20 11 12 11 16 0
20 -10 3 -10 7 0 20 11 12 11 16 0 20 -10 3 -10 7 0 20 11 12 11 16 0 20 -10
3 -10 7 0 20 11 12 11 16 0 20 -10 3 -10 7 0 20 11 12 11 16 0 20 -10 3 -10 7
-1 18 9 11 8 14 -6 14 -17 0 -17 1 0 20 17 19 17 20 0 20 -17 0 -17 1 0 20 17
19 17 20 0 20 -17 0 -17 1 0 20 17 19 17 20 0 20 -17 0 -17 1 0 20 17 19 17
20 0 20 -17 0 -17 1 0 20 17 19 17 20 0 20 -17 0 -17 1 0 20 17 19 17 20 0 20
-17 0 -17 1 0 20 17 19 17 20 0 20 -17 0 -17 1 0 20 17 19 17 20 0 20 -17 0
-17 1 0 20 17 19 17 20 0 20 -17 0 -17 1 0 20 17 19 17 20 0 20 -17 0 -17 1 0
20 17 19 17 20 0 20 -17 0 -17 1 0 20 17 19 17 20 0 20 -17 0 -17 1 0 20 17
19 17 20 0 20 -17 0 -17 1 0 20 17 19 17 20 0 20 -17 0 -17 1 0 20 17 19 17
20 0 20 -17 0 -17 1 0 20 17 19 17 20 0 20 -17 0 -17 1 0 20 17 19 17 20 0 20
-17 0 -17 1 0 20 17 19 17 20 0 20 -17 0 -17 1 0 20 17 19 17 20 0 20 -17 0
-17 1 0 20 17 19 17 20 0 20 -17 0 -17 1 0 20 17 19 17 20 0 20 -17 0 -17 1 0
20 17 19 17 20 0 20 -17 0 -17 1 0 20 17 19 17 20 0 20 -17 0 -17 1 0 20 17
19 17 20 0 20 -17 0 -17 1 0 20 17 19 17 20 0 20 -17 0 -17 1 0 20 17 19 17
20 0 20 -17 0 -17 1 0 20 17 19 17 20 0 20 -17 0 -17 1 0 20 17 19 17 20 0 20
-17 0 -17 1 0 20 17 19 17 20 0 20 -17 0 -17 1 0 20 17 19 17 20 0 20 -17 0
-17 1 0 20 17 19 17 20 0 20 -17 0 -17 1 0 20 17 19 17 20 0 20 -17 0 -17 1 0
20 17 19 17 20 0 20 -17 0 -17 1 0 20 17 19 17 20 0 20 -17 0 -17 1 0 20 17
19 17 20 0 20 -17 0 -17 1 0 20 17 19 17 20 0 20 -17 0 -17 1 0 20 17 19 17
20 0 20 -17 0 -17 1 0 20 17 19 17 20 0 20 -17 0 -17 1 0 20 17 19 17 20 0 20
-17 0 -17 1 0 20 17 19 17 20 0 20 -17 0 -17 1 0 20 17 19 17 20 0 20 -17 0
-17 1 0 20 17 19 17 20 0 20 -17 0 -17 1 0 20 17 19 17 20 0 20 -17 0 -17 1 0
20 17 19 17 20 0 20 -17 0 -17 1 0 20 17 19 17 20 0 20 -17 0 -17 1 0 20 17
19 17 20 0 20 -17 0 -17 1 0 20 17 19 17 20 0 20 -17 0 -17 1 0 20 17 19 17
20 0 20 -17 0 -17 1 0 20 17 19 17 20 0 20 -17 0 -17 1 0 20 17 19 17 20 0 20
-17 0 -17 1 0 20 17 19 17 20 0 20 -17 0 -17 1 0 20 17 19 17 20 0 20 -17 0
-17 1 0 20 17 19 17 20 0 20 -17 0 -17 1 0 20 17 19 17 20 0 20 -17 0 -17 1 0
20 17 19 17 20 0 20 -17 0 -17 1 1 21 14 16 16 23 6 26 -10 4 -10 8 0 21 11
12 11 16 0 20 -10 3 -10 7 0 20 11 12 11 16 0 20 -10 3 -10 7 0 20 11 12 11
16 0 20 -10 3 -10 7 0 20 11 12 11 16 0 20 -10 3 -10 7 0 20 11 12 11 16 0 20
-10 3 -10 7 0 20 10 12 10 16 0 19 -6 3 -10 9 -6 14 3 5 -2 9 -11 9 -9 0 -13
5 -10 10 3 6 -1 10 -10 10 -9 0 -13 5 -10 10 3 6 -1 10 -10 10 -9 0 -13 5 -10
10 3 6 -1 10 -10 10 -9 0 -13 5 -10 10 3 6 -1 10 -10 10 -9 0 -13 5 -10 11 4
5 -2 18 -14 28 -11 10 -18 21 -14 25 3 3 -2 6 -12 6 -10 0 -15 3 -12 7 9 8
-42 63 -58 63 -6 0 -25 -15 -42 -32z"/>
</g>
</svg>
