<?xml version="1.0" encoding="UTF-8"?>
<svg version="1.1" xmlns="http://www.w3.org/2000/svg" width="345" height="345">
<path d="M0 0 C2.97845911 1.11692216 3.92918824 2.209248 5.5 4.9375 C5.5 5.5975 5.5 6.2575 5.5 6.9375 C7.45927063 8.6518618 9.45880212 10.32155168 11.5 11.9375 C11.17 12.5975 10.84 13.2575 10.5 13.9375 C11.4075 14.659375 12.315 15.38125 13.25 16.125 C16.07382209 18.46930513 18.28052536 21.0046228 20.5 23.9375 C21.49 24.9275 21.49 24.9275 22.5 25.9375 C21.84 26.5975 21.18 27.2575 20.5 27.9375 C21.49 28.9275 21.49 28.9275 22.5 29.9375 C21.84 30.5975 21.18 31.2575 20.5 31.9375 C21.16 32.5975 21.82 33.2575 22.5 33.9375 C21.51 34.9275 21.51 34.9275 20.5 35.9375 C21.16 36.5975 21.82 37.2575 22.5 37.9375 C21.51 38.9275 21.51 38.9275 20.5 39.9375 C21.16 40.5975 21.82 41.2575 22.5 41.9375 C21.51 42.9275 21.51 42.9275 20.5 43.9375 C21.16 44.5975 21.82 45.2575 22.5 45.9375 C21.51 46.9275 21.51 46.9275 20.5 47.9375 C20.5 49.2575 20.5 50.5775 20.5 51.9375 C20.17 52.2675 19.84 52.5975 19.5 52.9375 C20.16 53.5975 20.82 54.2575 21.5 54.9375 C20.51 55.9275 20.51 55.9275 19.5 56.9375 C20.16 57.5975 20.82 58.2575 21.5 58.9375 C20.51 59.9275 20.51 59.9275 19.5 60.9375 C20.16 61.5975 20.82 62.2575 21.5 62.9375 C20.84 63.5975 20.18 64.2575 19.5 64.9375 C20.16 65.5975 20.82 66.2575 21.5 66.9375 C20.84 67.5975 20.18 68.2575 19.5 68.9375 C20.16 69.5975 20.82 70.2575 21.5 70.9375 C20.84 71.5975 20.18 72.2575 19.5 72.9375 C20.16 73.5975 20.82 74.2575 21.5 74.9375 C20.84 75.5975 20.18 76.2575 19.5 76.9375 C20.16 77.5975 20.82 78.2575 21.5 78.9375 C20.84 79.5975 20.18 80.2575 19.5 80.9375 C20.16 81.5975 20.82 82.2575 21.5 82.9375 C20.84 83.5975 20.18 84.2575 19.5 84.9375 C20.16 85.5975 20.82 86.2575 21.5 86.9375 C20.84 87.5975 20.18 88.2575 19.5 88.9375 C20.16 89.5975 20.82 90.2575 21.5 90.9375 C20.84 91.5975 20.18 92.2575 19.5 92.9375 C20.16 93.5975 20.82 94.2575 21.5 94.9375 C20.84 95.5975 20.18 96.2575 19.5 96.9375 C20.16 97.5975 20.82 98.2575 21.5 98.9375 C20.84 99.5975 20.18 100.2575 19.5 100.9375 C20.16 101.5975 20.82 102.2575 21.5 102.9375 C20.84 103.5975 20.18 104.2575 19.5 104.9375 C20.16 105.5975 20.82 106.2575 21.5 106.9375 C20.84 107.5975 20.18 108.2575 19.5 108.9375 C20.16 109.5975 20.82 110.2575 21.5 110.9375 C20.84 111.5975 20.18 112.2575 19.5 112.9375 C20.16 113.5975 20.82 114.2575 21.5 114.9375 C20.84 115.5975 20.18 116.2575 19.5 116.9375 C20.16 117.5975 20.82 118.2575 21.5 118.9375 C20.84 119.5975 20.18 120.2575 19.5 120.9375 C20.16 121.5975 20.82 122.2575 21.5 122.9375 C20.84 123.5975 20.18 124.2575 19.5 124.9375 C20.16 125.5975 20.82 126.2575 21.5 126.9375 C20.84 127.5975 20.18 128.2575 19.5 128.9375 C20.16 129.5975 20.82 130.2575 21.5 130.9375 C20.84 131.5975 20.18 132.2575 19.5 132.9375 C20.16 133.5975 20.82 134.2575 21.5 134.9375 C20.84 135.5975 20.18 136.2575 19.5 136.9375 C20.16 137.5975 20.82 138.2575 21.5 138.9375 C20.84 139.5975 20.18 140.2575 19.5 140.9375 C20.16 141.5975 20.82 142.2575 21.5 142.9375 C20.84 143.5975 20.18 144.2575 19.5 144.9375 C20.16 145.5975 20.82 146.2575 21.5 146.9375 C20.84 147.5975 20.18 148.2575 19.5 148.9375 C20.16 149.5975 20.82 150.2575 21.5 150.9375 C20.84 151.5975 20.18 152.2575 19.5 152.9375 C20.16 153.5975 20.82 154.2575 21.5 154.9375 C20.84 155.5975 20.18 156.2575 19.5 156.9375 C20.16 157.5975 20.82 158.2575 21.5 158.9375 C20.84 159.5975 20.18 160.2575 19.5 160.9375 C20.16 161.5975 20.82 162.2575 21.5 162.9375 C20.84 163.5975 20.18 164.2575 19.5 164.9375 C20.16 165.5975 20.82 166.2575 21.5 166.9375 C20.84 167.5975 20.18 168.2575 19.5 168.9375 C20.16 169.5975 20.82 170.2575 21.5 170.9375 C20.84 171.5975 20.18 172.2575 19.5 172.9375 C20.16 173.5975 20.82 174.2575 21.5 174.9375 C20.84 175.5975 20.18 176.2575 19.5 176.9375 C20.16 177.5975 20.82 178.2575 21.5 178.9375 C20.84 179.5975 20.18 180.2575 19.5 180.9375 C20.16 181.5975 20.82 182.2575 21.5 182.9375 C20.84 183.5975 20.18 184.2575 19.5 184.9375 C20.16 185.5975 20.82 186.2575 21.5 186.9375 C20.84 187.5975 20.18 188.2575 19.5 188.9375 C20.16 189.5975 20.82 190.2575 21.5 190.9375 C20.84 191.5975 20.18 192.2575 19.5 192.9375 C20.16 193.5975 20.82 194.2575 21.5 194.9375 C20.84 195.5975 20.18 196.2575 19.5 196.9375 C19.5 198.2575 19.5 199.5775 19.5 200.9375 C20.16 201.5975 20.82 202.2575 21.5 202.9375 C20.84 203.5975 20.18 204.2575 19.5 204.9375 C20.16 205.5975 20.82 206.2575 21.5 206.9375 C20.84 207.5975 20.18 208.2575 19.5 208.9375 C20.16 209.5975 20.82 210.2575 21.5 210.9375 C20.84 211.5975 20.18 212.2575 19.5 212.9375 C19.5 214.2575 19.5 215.5775 19.5 216.9375 C20.16 217.5975 20.82 218.2575 21.5 218.9375 C20.84 219.5975 20.18 220.2575 19.5 220.9375 C20.16 221.5975 20.82 222.2575 21.5 222.9375 C20.84 223.5975 20.18 224.2575 19.5 224.9375 C20.16 225.5975 20.82 226.2575 21.5 226.9375 C20.84 227.5975 20.18 228.2575 19.5 228.9375 C20.16 229.5975 20.82 230.2575 21.5 230.9375 C20.84 231.5975 20.18 232.2575 19.5 232.9375 C20.16 233.5975 20.82 234.2575 21.5 234.9375 C20.84 235.5975 20.18 236.2575 19.5 236.9375 C20.16 237.5975 20.82 238.2575 21.5 238.9375 C20.84 239.5975 20.18 240.2575 19.5 240.9375 C20.16 241.5975 20.82 242.2575 21.5 242.9375 C20.84 243.5975 20.18 244.2575 19.5 244.9375 C20.16 245.5975 20.82 246.2575 21.5 246.9375 C20.84 247.5975 20.18 248.2575 19.5 248.9375 C20.16 249.5975 20.82 250.2575 21.5 250.9375 C20.84 251.5975 20.18 252.2575 19.5 252.9375 C20.16 253.5975 20.82 254.2575 21.5 254.9375 C20.84 255.5975 20.18 256.2575 19.5 256.9375 C20.16 257.5975 20.82 258.2575 21.5 258.9375 C20.84 259.5975 20.18 260.2575 19.5 260.9375 C20.16 261.5975 20.82 262.2575 21.5 262.9375 C20.84 263.5975 20.18 264.2575 19.5 264.9375 C20.16 265.5975 20.82 266.2575 21.5 266.9375 C20.84 267.5975 20.18 268.2575 19.5 268.9375 C20.16 269.5975 20.82 270.2575 21.5 270.9375 C20.84 271.5975 20.18 272.2575 19.5 272.9375 C20.16 273.5975 20.82 274.2575 21.5 274.9375 C21.16666667 276.60416667 20.83333333 278.27083333 20.5 279.9375 C21.16 280.5975 21.82 281.2575 22.5 281.9375 C21.84 282.5975 21.18 283.2575 20.5 283.9375 C21.16 284.5975 21.82 285.2575 22.5 285.9375 C21.84 286.5975 21.18 287.2575 20.5 287.9375 C21.16 288.5975 21.82 289.2575 22.5 289.9375 C21.84 290.5975 21.18 291.2575 20.5 291.9375 C21.16 292.5975 21.82 293.2575 22.5 293.9375 C21.84 294.5975 21.18 295.2575 20.5 295.9375 C21.16 296.5975 21.82 297.2575 22.5 297.9375 C21.84 298.5975 21.18 299.2575 20.5 299.9375 C21.16 300.5975 21.82 301.2575 22.5 301.9375 C21.84 302.5975 21.18 303.2575 20.5 303.9375 C21.16 304.5975 21.82 305.2575 22.5 305.9375 C21.84 306.5975 21.18 307.2575 20.5 307.9375 C21.16 308.5975 21.82 309.2575 22.5 309.9375 C18.54 313.8975 14.58 317.8575 10.5 321.9375 C11.16 322.5975 11.82 323.2575 12.5 323.9375 C11.35741724 325.08008276 10.2132263 326.22108799 9.0625 327.35546875 C7.93240031 328.49969469 6.8315669 329.67307482 5.75 330.86328125 C5.151875 331.50652344 4.55375 332.14976562 3.9375 332.8125 C3.37933594 333.42867188 2.82117188 334.04484375 2.24609375 334.6796875 C0.5 335.9375 0.5 335.9375 -1.63671875 335.76171875 C-4.10361837 334.67049062 -4.54842371 333.39573876 -5.5 330.9375 C-6.16 330.9375 -6.82 330.9375 -7.5 330.9375 C-7.5 330.2775 -7.5 329.6175 -7.5 328.9375 C-8.06589844 328.71707031 -8.63179687 328.49664062 -9.21484375 328.26953125 C-12.21648331 326.51985759 -13.89646094 324.33346509 -16.0625 321.625 C-16.82691406 320.68011719 -17.59132813 319.73523438 -18.37890625 318.76171875 C-22.27317831 313.57652778 -23.87553501 310.57891479 -23.80541992 303.96337891 C-23.80143188 302.94039452 -23.80143188 302.94039452 -23.79736328 301.89674377 C-23.79043174 300.42241869 -23.77704215 298.94811266 -23.757864 297.47389603 C-23.73013295 295.1357497 -23.72533359 292.798596 -23.72737122 290.46029663 C-23.73089554 283.81497545 -23.70791421 277.17032564 -23.6340332 270.52539062 C-23.5903917 266.45377715 -23.58581598 262.38364723 -23.60561562 258.31187057 C-23.60551838 256.7657393 -23.59073843 255.21953328 -23.56065941 253.67369461 C-23.13640295 245.14693442 -23.13640295 245.14693442 -26.2706604 237.53094482 C-28.35781165 235.6640362 -28.35781165 235.6640362 -30.58613586 234.29550171 C-32.77897122 232.73955314 -33.4965911 231.39767819 -34.5 228.9375 C-35.16 228.9375 -35.82 228.9375 -36.5 228.9375 C-36.5 228.2775 -36.5 227.6175 -36.5 226.9375 C-37.16 226.9375 -37.82 226.9375 -38.5 226.9375 C-38.5 226.2775 -38.5 225.6175 -38.5 224.9375 C-39.3971875 224.504375 -39.3971875 224.504375 -40.3125 224.0625 C-42.5 222.9375 -42.5 222.9375 -45.5 220.9375 C-45.5 220.2775 -45.5 219.6175 -45.5 218.9375 C-46.16 218.9375 -46.82 218.9375 -47.5 218.9375 C-47.5 218.2775 -47.5 217.6175 -47.5 216.9375 C-48.16 216.9375 -48.82 216.9375 -49.5 216.9375 C-49.5 216.2775 -49.5 215.6175 -49.5 214.9375 C-50.16 214.9375 -50.82 214.9375 -51.5 214.9375 C-51.5 214.2775 -51.5 213.6175 -51.5 212.9375 C-52.16 212.9375 -52.82 212.9375 -53.5 212.9375 C-53.5 212.2775 -53.5 211.6175 -53.5 210.9375 C-54.16 210.9375 -54.82 210.9375 -55.5 210.9375 C-55.5 210.2775 -55.5 209.6175 -55.5 208.9375 C-56.04140625 208.7209375 -56.5828125 208.504375 -57.140625 208.28125 C-60.31645344 206.47250003 -62.70728081 204.02026201 -65.25 201.4375 C-65.75660156 200.93863281 -66.26320313 200.43976563 -66.78515625 199.92578125 C-70.5 196.19091139 -70.5 196.19091139 -70.5 193.9375 C-71.05413574 193.71006104 -71.60827148 193.48262207 -72.17919922 193.24829102 C-75.17399705 191.55682567 -77.22366236 189.41967638 -79.6328125 186.96484375 C-80.11072235 186.48173233 -80.5886322 185.99862091 -81.08102417 185.50086975 C-82.60053614 183.96360959 -84.1131639 182.41980674 -85.625 180.875 C-87.14484559 179.32752523 -88.66613419 177.78154074 -90.19039917 176.23841858 C-91.56918742 174.84179199 -92.94316065 173.44041677 -94.31689453 172.03881836 C-96.31680452 169.90490455 -96.31680452 169.90490455 -98.5 168.9375 C-98.5 168.2775 -98.5 167.6175 -98.5 166.9375 C-99.16 166.9375 -99.82 166.9375 -100.5 166.9375 C-100.5 166.2775 -100.5 165.6175 -100.5 164.9375 C-101.16 164.9375 -101.82 164.9375 -102.5 164.9375 C-102.5 164.2775 -102.5 163.6175 -102.5 162.9375 C-103.39271606 162.5332505 -103.39271606 162.5332505 -104.3034668 162.12083435 C-106.4972862 160.938962 -107.90395741 159.77007622 -109.64453125 158.00415039 C-110.52564575 157.11796776 -110.52564575 157.11796776 -111.42456055 156.21388245 C-112.35909058 155.25916298 -112.35909058 155.25916298 -113.3125 154.28515625 C-113.96323486 153.62921982 -114.61396973 152.97328339 -115.28442383 152.29747009 C-117.36109337 150.2030104 -119.43095506 148.10198998 -121.5 146 C-123.56988727 143.90244687 -125.6412293 141.8063848 -127.71557617 139.71324158 C-129.00499779 138.41161739 -130.29173679 137.10732883 -131.57543945 135.80006409 C-133.93794199 133.41129487 -136.18922508 131.16832782 -138.890625 129.16186523 C-140.5 127.9375 -140.5 127.9375 -141.0625 125.5625 C-140.26708389 121.85055814 -138.36447959 120.32456633 -135.5 117.9375 C-134.84 117.9375 -134.18 117.9375 -133.5 117.9375 C-133.5 117.2775 -133.5 116.6175 -133.5 115.9375 C-132.84 115.9375 -132.18 115.9375 -131.5 115.9375 C-131.5 115.2775 -131.5 114.6175 -131.5 113.9375 C-130.84 113.9375 -130.18 113.9375 -129.5 113.9375 C-129.5 113.2775 -129.5 112.6175 -129.5 111.9375 C-128.84 111.9375 -128.18 111.9375 -127.5 111.9375 C-127.5 111.2775 -127.5 110.6175 -127.5 109.9375 C-126.84 109.9375 -126.18 109.9375 -125.5 109.9375 C-125.5 109.2775 -125.5 108.6175 -125.5 107.9375 C-124.84 107.9375 -124.18 107.9375 -123.5 107.9375 C-123.5 107.2775 -123.5 106.6175 -123.5 105.9375 C-122.84 105.9375 -122.18 105.9375 -121.5 105.9375 C-121.5 105.2775 -121.5 104.6175 -121.5 103.9375 C-120.84 103.9375 -120.18 103.9375 -119.5 103.9375 C-119.5 103.2775 -119.5 102.6175 -119.5 101.9375 C-118.84 101.9375 -118.18 101.9375 -117.5 101.9375 C-116.84 100.6175 -116.18 99.2975 -115.5 97.9375 C-114.84 97.9375 -114.18 97.9375 -113.5 97.9375 C-113.231875 97.31875 -112.96375 96.7 -112.6875 96.0625 C-111.5 93.9375 -111.5 93.9375 -108.5 91.9375 C-104.29540195 92.08248614 -101.38267708 95.14882326 -98.5 97.9375 C-97.16666667 99.60416667 -95.83333333 101.27083333 -94.5 102.9375 C-93.015 104.175 -93.015 104.175 -91.5 105.4375 C-88.69778116 107.77268237 -86.76479228 110.10650965 -84.5 112.9375 C-83.015 114.175 -83.015 114.175 -81.5 115.4375 C-78.69778116 117.77268237 -76.76479228 120.10650965 -74.5 122.9375 C-73.51 123.7625 -72.52 124.5875 -71.5 125.4375 C-68.69778116 127.77268237 -66.76479228 130.10650965 -64.5 132.9375 C-62.01711246 135.227417 -59.5375763 137.41871185 -56.5 138.9375 C-56.5 139.5975 -56.5 140.2575 -56.5 140.9375 C-55.84 140.9375 -55.18 140.9375 -54.5 140.9375 C-54.5 141.5975 -54.5 142.2575 -54.5 142.9375 C-53.84 142.9375 -53.18 142.9375 -52.5 142.9375 C-52.5 143.5975 -52.5 144.2575 -52.5 144.9375 C-51.84 144.9375 -51.18 144.9375 -50.5 144.9375 C-50.5 145.5975 -50.5 146.2575 -50.5 146.9375 C-49.84 146.9375 -49.18 146.9375 -48.5 146.9375 C-48.5 147.5975 -48.5 148.2575 -48.5 148.9375 C-47.51 149.2675 -46.52 149.5975 -45.5 149.9375 C-45.17 150.9275 -44.84 151.9175 -44.5 152.9375 C-43.84 152.9375 -43.18 152.9375 -42.5 152.9375 C-42.5 153.5975 -42.5 154.2575 -42.5 154.9375 C-41.51 155.2675 -40.52 155.5975 -39.5 155.9375 C-36.26480992 158.44642292 -33.77780683 160.52078975 -31.5 163.9375 C-31.83 164.2675 -32.16 164.5975 -32.5 164.9375 C-29.9041044 167.81152727 -28.28630702 169.18182948 -24.5 169.9375 C-24.49761165 169.19997151 -24.49522329 168.46244303 -24.49276257 167.70256519 C-24.43363175 149.75853365 -24.35809401 131.81463989 -24.26428509 113.8707552 C-24.21931563 105.1932274 -24.17990364 96.51574076 -24.15356445 87.83813477 C-24.13059366 80.2749081 -24.09720598 72.71181153 -24.05129844 65.14868802 C-24.02735374 61.14389341 -24.00863317 57.13922774 -24.00238609 53.13436317 C-23.99634082 49.36437352 -23.97636149 45.59471381 -23.94572449 41.82484627 C-23.93693527 40.44178305 -23.93322352 39.05867672 -23.93499184 37.6755867 C-23.93664524 35.78554302 -23.91817442 33.89551381 -23.89872742 32.00556946 C-23.89411845 30.94827291 -23.88950949 29.89097635 -23.88476086 28.80164051 C-23.10801549 23.01958701 -19.05901086 19.04447375 -15.375 14.75 C-12.10833514 11.07255159 -12.10833514 11.07255159 -9.5 6.9375 C-8.84 6.9375 -8.18 6.9375 -7.5 6.9375 C-7.0978125 6.0403125 -7.0978125 6.0403125 -6.6875 5.125 C-3.85306554 -0.09632664 -3.85306554 -0.09632664 0 0 Z " fill="#FCFCFC" transform="translate(274.5,6.0625)"/>
<path d="M0 0 C0.763125 0.20625 1.52625 0.4125 2.3125 0.625 C2.3125 1.285 2.3125 1.945 2.3125 2.625 C3.74664772 3.82568181 5.18432843 5.02255031 6.64453125 6.19140625 C9.2486294 8.42958897 11.24244488 10.88522117 13.3125 13.625 C13.3125 14.285 13.3125 14.945 13.3125 15.625 C14.78954212 16.87727484 16.27077399 18.12666522 17.8046875 19.30859375 C19.3125 20.625 19.3125 20.625 21.3125 23.625 C20.8175 24.12 20.8175 24.12 20.3125 24.625 C20.9725 25.285 21.6325 25.945 22.3125 26.625 C21.6525 27.285 20.9925 27.945 20.3125 28.625 C20.9725 29.285 21.6325 29.945 22.3125 30.625 C21.6525 31.285 20.9925 31.945 20.3125 32.625 C20.9725 33.285 21.6325 33.945 22.3125 34.625 C21.6525 35.285 20.9925 35.945 20.3125 36.625 C20.9725 37.285 21.6325 37.945 22.3125 38.625 C21.6525 39.285 20.9925 39.945 20.3125 40.625 C20.9725 41.285 21.6325 41.945 22.3125 42.625 C21.6525 43.285 20.9925 43.945 20.3125 44.625 C20.9725 45.285 21.6325 45.945 22.3125 46.625 C21.6525 47.285 20.9925 47.945 20.3125 48.625 C20.9725 49.285 21.6325 49.945 22.3125 50.625 C21.6525 51.285 20.9925 51.945 20.3125 52.625 C20.9725 53.285 21.6325 53.945 22.3125 54.625 C21.6525 55.285 20.9925 55.945 20.3125 56.625 C20.9725 57.285 21.6325 57.945 22.3125 58.625 C21.6525 59.285 20.9925 59.945 20.3125 60.625 C20.9725 61.285 21.6325 61.945 22.3125 62.625 C21.6525 63.285 20.9925 63.945 20.3125 64.625 C21.3025 65.615 21.3025 65.615 22.3125 66.625 C21.6525 67.285 20.9925 67.945 20.3125 68.625 C21.3025 69.615 21.3025 69.615 22.3125 70.625 C21.6525 71.285 20.9925 71.945 20.3125 72.625 C21.3025 73.615 21.3025 73.615 22.3125 74.625 C21.6525 75.285 20.9925 75.945 20.3125 76.625 C21.3025 77.615 21.3025 77.615 22.3125 78.625 C21.6525 79.285 20.9925 79.945 20.3125 80.625 C21.3025 81.615 21.3025 81.615 22.3125 82.625 C21.6525 83.285 20.9925 83.945 20.3125 84.625 C21.3025 85.615 21.3025 85.615 22.3125 86.625 C21.6525 87.285 20.9925 87.945 20.3125 88.625 C21.3025 89.615 21.3025 89.615 22.3125 90.625 C21.6525 91.285 20.9925 91.945 20.3125 92.625 C21.3025 93.615 21.3025 93.615 22.3125 94.625 C21.6525 95.285 20.9925 95.945 20.3125 96.625 C21.3025 97.615 21.3025 97.615 22.3125 98.625 C21.6525 99.285 20.9925 99.945 20.3125 100.625 C21.3025 101.615 21.3025 101.615 22.3125 102.625 C21.6525 103.285 20.9925 103.945 20.3125 104.625 C21.3025 105.615 21.3025 105.615 22.3125 106.625 C21.6525 107.285 20.9925 107.945 20.3125 108.625 C21.3025 109.615 21.3025 109.615 22.3125 110.625 C21.6525 111.285 20.9925 111.945 20.3125 112.625 C21.3025 113.615 21.3025 113.615 22.3125 114.625 C21.6525 115.285 20.9925 115.945 20.3125 116.625 C21.3025 117.615 21.3025 117.615 22.3125 118.625 C21.6525 119.285 20.9925 119.945 20.3125 120.625 C21.3025 121.615 21.3025 121.615 22.3125 122.625 C21.6525 123.285 20.9925 123.945 20.3125 124.625 C21.3025 125.615 21.3025 125.615 22.3125 126.625 C21.9825 126.955 21.6525 127.285 21.3125 127.625 C22.22 128.346875 23.1275 129.06875 24.0625 129.8125 C26.89503299 132.16191405 29.01215715 134.74957144 31.3125 137.625 C32.3025 138.45 33.2925 139.275 34.3125 140.125 C37.3125 142.625 37.3125 142.625 39.3125 145.1875 C41.63890582 148.02280709 44.2680739 149.61844644 47.3125 151.625 C47.3125 152.285 47.3125 152.945 47.3125 153.625 C48.7975 154.615 48.7975 154.615 50.3125 155.625 C51.7975 156.615 51.7975 156.615 53.3125 157.625 C53.3125 158.285 53.3125 158.945 53.3125 159.625 C53.9725 159.625 54.6325 159.625 55.3125 159.625 C55.3125 160.285 55.3125 160.945 55.3125 161.625 C55.9725 161.625 56.6325 161.625 57.3125 161.625 C57.3125 162.285 57.3125 162.945 57.3125 163.625 C57.9725 163.625 58.6325 163.625 59.3125 163.625 C59.3125 164.285 59.3125 164.945 59.3125 165.625 C63.05276702 168.99487716 63.05276702 168.99487716 67.3125 171.625 C67.3125 172.285 67.3125 172.945 67.3125 173.625 C67.9725 173.625 68.6325 173.625 69.3125 173.625 C69.3125 174.285 69.3125 174.945 69.3125 175.625 C69.9725 175.625 70.6325 175.625 71.3125 175.625 C71.3125 176.285 71.3125 176.945 71.3125 177.625 C72.3025 177.955 73.2925 178.285 74.3125 178.625 C78.29554621 181.6758439 81.17625972 184.70469965 84.3125 188.625 C85.3025 189.45 86.2925 190.275 87.3125 191.125 C90.11471884 193.46018237 92.04770772 195.79400965 94.3125 198.625 C97.02450653 200.99800571 99.75038399 203.22560178 102.6875 205.3125 C103.22375 205.745625 103.76 206.17875 104.3125 206.625 C104.3125 207.285 104.3125 207.945 104.3125 208.625 C104.9725 208.625 105.6325 208.625 106.3125 208.625 C106.3125 209.285 106.3125 209.945 106.3125 210.625 C106.9725 210.625 107.6325 210.625 108.3125 210.625 C108.3125 211.285 108.3125 211.945 108.3125 212.625 C108.9725 212.625 109.6325 212.625 110.3125 212.625 C110.3125 213.285 110.3125 213.945 110.3125 214.625 C111.3025 214.955 112.2925 215.285 113.3125 215.625 C117.25483371 218.64465986 120.33340897 221.61468515 123.3125 225.625 C122.9825 225.955 122.6525 226.285 122.3125 226.625 C122.9725 227.285 123.6325 227.945 124.3125 228.625 C113.4225 239.515 102.5325 250.405 91.3125 261.625 C86.98713171 259.02977903 83.87331947 256.43579098 80.41796875 252.890625 C79.86691971 252.33437439 79.31587067 251.77812378 78.74812317 251.20501709 C76.99389097 249.43306537 75.24649972 247.65457096 73.5 245.875 C71.20526513 243.54345462 68.90722493 241.21523909 66.60546875 238.890625 C66.05457077 238.3338205 65.50367279 237.77701599 64.93608093 237.20333862 C61.39601285 233.64848953 57.76905569 230.2555892 53.91015625 227.04443359 C51.63917166 225.02678316 49.73686657 222.75790119 47.83203125 220.3984375 C43.87027181 215.7746874 39.29961455 211.72690982 34.8125 207.625 C30.88978453 204.03903737 27.04307886 200.41125914 23.3125 196.625 C22.3225 197.945 21.3325 199.265 20.3125 200.625 C21.3025 201.615 21.3025 201.615 22.3125 202.625 C21.6525 203.285 20.9925 203.945 20.3125 204.625 C21.3025 205.615 21.3025 205.615 22.3125 206.625 C21.6525 207.285 20.9925 207.945 20.3125 208.625 C21.3025 209.615 21.3025 209.615 22.3125 210.625 C21.6525 211.285 20.9925 211.945 20.3125 212.625 C21.3025 213.615 21.3025 213.615 22.3125 214.625 C21.6525 215.285 20.9925 215.945 20.3125 216.625 C21.3025 217.615 21.3025 217.615 22.3125 218.625 C21.6525 219.285 20.9925 219.945 20.3125 220.625 C21.3025 221.615 21.3025 221.615 22.3125 222.625 C21.6525 223.285 20.9925 223.945 20.3125 224.625 C21.3025 225.615 21.3025 225.615 22.3125 226.625 C21.6525 227.285 20.9925 227.945 20.3125 228.625 C21.3025 229.615 21.3025 229.615 22.3125 230.625 C21.6525 231.285 20.9925 231.945 20.3125 232.625 C21.3025 233.615 21.3025 233.615 22.3125 234.625 C21.6525 235.285 20.9925 235.945 20.3125 236.625 C21.3025 237.615 21.3025 237.615 22.3125 238.625 C21.6525 239.285 20.9925 239.945 20.3125 240.625 C21.3025 241.615 21.3025 241.615 22.3125 242.625 C21.6525 243.285 20.9925 243.945 20.3125 244.625 C21.3025 245.615 21.3025 245.615 22.3125 246.625 C21.6525 247.285 20.9925 247.945 20.3125 248.625 C21.3025 249.615 21.3025 249.615 22.3125 250.625 C21.6525 251.285 20.9925 251.945 20.3125 252.625 C21.3025 253.615 21.3025 253.615 22.3125 254.625 C21.6525 255.285 20.9925 255.945 20.3125 256.625 C20.9725 257.285 21.6325 257.945 22.3125 258.625 C21.6525 259.285 20.9925 259.945 20.3125 260.625 C20.9725 261.285 21.6325 261.945 22.3125 262.625 C21.6525 263.285 20.9925 263.945 20.3125 264.625 C20.9725 265.285 21.6325 265.945 22.3125 266.625 C21.6525 267.285 20.9925 267.945 20.3125 268.625 C20.9725 269.285 21.6325 269.945 22.3125 270.625 C21.6525 271.285 20.9925 271.945 20.3125 272.625 C20.9725 273.285 21.6325 273.945 22.3125 274.625 C21.6525 275.285 20.9925 275.945 20.3125 276.625 C20.9725 277.285 21.6325 277.945 22.3125 278.625 C21.6525 279.285 20.9925 279.945 20.3125 280.625 C20.9725 281.285 21.6325 281.945 22.3125 282.625 C21.6525 283.285 20.9925 283.945 20.3125 284.625 C20.9725 285.285 21.6325 285.945 22.3125 286.625 C21.6525 287.285 20.9925 287.945 20.3125 288.625 C20.9725 289.285 21.6325 289.945 22.3125 290.625 C21.6525 291.285 20.9925 291.945 20.3125 292.625 C20.9725 293.285 21.6325 293.945 22.3125 294.625 C21.6525 295.285 20.9925 295.945 20.3125 296.625 C20.9725 297.285 21.6325 297.945 22.3125 298.625 C21.6525 299.285 20.9925 299.945 20.3125 300.625 C20.9725 301.285 21.6325 301.945 22.3125 302.625 C21.6525 303.285 20.9925 303.945 20.3125 304.625 C20.9725 305.285 21.6325 305.945 22.3125 306.625 C21.6525 307.285 20.9925 307.945 20.3125 308.625 C20.9725 309.285 21.6325 309.945 22.3125 310.625 C17.6925 315.245 13.0725 319.865 8.3125 324.625 C8.9725 325.285 9.6325 325.945 10.3125 326.625 C7.0125 329.925 3.7125 333.225 0.3125 336.625 C-5.24562608 334.40174957 -5.24562608 334.40174957 -7.25 331.3125 C-10.57940443 326.54122751 -14.50006132 322.44140421 -18.54907227 318.28198242 C-19.05365967 317.75193604 -19.55824707 317.22188965 -20.078125 316.67578125 C-20.53219727 316.20825439 -20.98626953 315.74072754 -21.45410156 315.2590332 C-24.17586301 311.65318416 -24.93767276 308.04373376 -24.9207716 303.60121822 C-24.921887 302.60792883 -24.9230024 301.61463943 -24.9241516 300.59125036 C-24.91059983 298.96548184 -24.91059983 298.96548184 -24.89677429 297.30686951 C-24.89427059 295.57122674 -24.89427059 295.57122674 -24.8917163 293.80052048 C-24.88503875 290.59281138 -24.86931104 287.38529371 -24.8497473 284.17764199 C-24.83083181 280.71683831 -24.82355335 277.25600764 -24.81481934 273.79516602 C-24.79586608 267.01725234 -24.76614179 260.23942649 -24.73277863 253.46157008 C-24.69432989 245.57071339 -24.6664476 237.67983005 -24.63899157 229.78892875 C-24.58964115 215.71154093 -24.53055993 201.63421063 -24.46606445 187.55688477 C-24.40346707 173.89219276 -24.34787607 160.22749594 -24.30004883 146.56274414 C-24.29710179 145.72099962 -24.29415475 144.8792551 -24.29111841 144.01200318 C-24.28817708 143.17172363 -24.28523575 142.33144408 -24.28220528 141.46570152 C-24.22771733 125.91480018 -24.16674698 110.36393017 -24.1026988 94.81306545 C-24.08018115 89.31056196 -24.059575 83.80805316 -24.0395565 78.30554008 C-24.01503743 71.60213523 -23.98678407 64.89875762 -23.95385798 58.19538861 C-23.93712215 54.77418701 -23.9219415 51.35299769 -23.91099739 47.93177223 C-23.89828395 44.22652552 -23.87953499 40.52135828 -23.85917664 36.81614685 C-23.85683429 35.73007045 -23.85449194 34.64399404 -23.85207862 33.52500623 C-23.84537077 32.53432459 -23.83866293 31.54364294 -23.83175182 30.52294064 C-23.82800964 29.66748305 -23.82426745 28.81202547 -23.82041186 27.93064493 C-23.69196918 25.70252757 -23.30741106 23.7636717 -22.6875 21.625 C-22.0275 21.625 -21.3675 21.625 -20.6875 21.625 C-20.6875 20.965 -20.6875 20.305 -20.6875 19.625 C-20.0275 19.625 -19.3675 19.625 -18.6875 19.625 C-18.6875 18.965 -18.6875 18.305 -18.6875 17.625 C-18.0275 17.625 -17.3675 17.625 -16.6875 17.625 C-16.44902344 17.09132813 -16.21054687 16.55765625 -15.96484375 16.0078125 C-14.32432478 12.94751717 -12.32968054 10.27973721 -10.25 7.5 C-9.46753906 6.44554687 -8.68507813 5.39109375 -7.87890625 4.3046875 C-3.91218354 -0.54588608 -3.91218354 -0.54588608 0 0 Z " fill="#FCFCFC" transform="translate(74.6875,5.375)"/>
</svg>
